<svg viewBox="0 0 725 230" xmlns="http://www.w3.org/2000/svg" font-family="Arial, sans-serif">
  <rect width="725" height="230" fill="#f8f9fa" rx="12"/>
  <text x="362" y="28" text-anchor="middle" font-size="14" font-weight="bold" fill="#222">Activation Functions — Breaking Linearity at Each Layer</text>
  
  <!-- Sigmoid chart -->
  <rect x="20" y="60" width="160" height="120" rx="6" fill="#fff" stroke="#3b82f6" stroke-width="1.5"/>
  <text x="100" y="56" text-anchor="middle" font-size="12" font-weight="bold" fill="#3b82f6">Sigmoid</text>
  <!-- zero lines -->
  <line x1="25" y1="165.8" x2="175" y2="165.8" stroke="#ddd" stroke-width="1"/>
  <line x1="100.0" y1="65" x2="100.0" y2="175" stroke="#ddd" stroke-width="1"/>
  <polyline points="25.0,164.2 26.5,164.0 28.0,163.9 29.5,163.7 31.0,163.6 32.5,163.4 34.0,163.2 35.5,163.0 37.0,162.8 38.5,162.5 40.0,162.2 41.5,162.0 43.0,161.6 44.5,161.3 46.0,161.0 47.5,160.6 49.0,160.2 50.5,159.7 52.0,159.3 53.5,158.8 55.0,158.2 56.5,157.6 58.0,157.0 59.5,156.4 61.0,155.7 62.5,154.9 64.0,154.1 65.5,153.3 67.0,152.4 68.5,151.4 70.0,150.4 71.5,149.4 73.0,148.3 74.5,147.1 76.0,145.9 77.5,144.6 79.0,143.3 80.5,141.9 82.0,140.5 83.5,139.0 85.0,137.4 86.5,135.8 88.0,134.2 89.5,132.5 91.0,130.8 92.5,129.0 94.0,127.3 95.5,125.5 97.0,123.7 98.5,121.8 100.0,120.0 101.5,118.2 103.0,116.3 104.5,114.5 106.0,112.7 107.5,111.0 109.0,109.2 110.5,107.5 112.0,105.8 113.5,104.2 115.0,102.6 116.5,101.0 118.0,99.5 119.5,98.1 121.0,96.7 122.5,95.4 124.0,94.1 125.5,92.9 127.0,91.7 128.5,90.6 130.0,89.6 131.5,88.6 133.0,87.6 134.5,86.7 136.0,85.9 137.5,85.1 139.0,84.3 140.5,83.6 142.0,83.0 143.5,82.4 145.0,81.8 146.5,81.2 148.0,80.7 149.5,80.3 151.0,79.8 152.5,79.4 154.0,79.0 155.5,78.7 157.0,78.4 158.5,78.0 160.0,77.8 161.5,77.5 163.0,77.2 164.5,77.0 166.0,76.8 167.5,76.6 169.0,76.4 170.5,76.3 172.0,76.1 173.5,76.0 175.0,75.8" fill="none" stroke="#3b82f6" stroke-width="2.5" stroke-linejoin="round"/>
  <text x="100" y="195" text-anchor="middle" font-size="9" fill="#555">binary output</text>
  <text x="100" y="207" text-anchor="middle" font-size="9" fill="#888">(0 to 1)</text>

  <!-- Tanh chart -->
  <rect x="195" y="60" width="160" height="120" rx="6" fill="#fff" stroke="#8b5cf6" stroke-width="1.5"/>
  <text x="275" y="56" text-anchor="middle" font-size="12" font-weight="bold" fill="#8b5cf6">Tanh</text>
  <!-- zero lines -->
  <line x1="200" y1="120.0" x2="350" y2="120.0" stroke="#ddd" stroke-width="1"/>
  <line x1="275.0" y1="65" x2="275.0" y2="175" stroke="#ddd" stroke-width="1"/>
  <polyline points="200.0,170.0 201.5,170.0 203.0,170.0 204.5,169.9 206.0,169.9 207.5,169.9 209.0,169.9 210.5,169.9 212.0,169.9 213.5,169.9 215.0,169.8 216.5,169.8 218.0,169.8 219.5,169.7 221.0,169.7 222.5,169.6 224.0,169.6 225.5,169.5 227.0,169.4 228.5,169.3 230.0,169.2 231.5,169.0 233.0,168.9 234.5,168.7 236.0,168.5 237.5,168.2 239.0,167.9 240.5,167.5 242.0,167.1 243.5,166.6 245.0,166.1 246.5,165.4 248.0,164.7 249.5,163.8 251.0,162.8 252.5,161.7 254.0,160.4 255.5,158.9 257.0,157.2 258.5,155.3 260.0,153.2 261.5,150.8 263.0,148.2 264.5,145.4 266.0,142.3 267.5,139.0 269.0,135.5 270.5,131.8 272.0,127.9 273.5,124.0 275.0,120.0 276.5,116.0 278.0,112.1 279.5,108.2 281.0,104.5 282.5,101.0 284.0,97.7 285.5,94.6 287.0,91.8 288.5,89.2 290.0,86.8 291.5,84.7 293.0,82.8 294.5,81.1 296.0,79.6 297.5,78.3 299.0,77.2 300.5,76.2 302.0,75.3 303.5,74.6 305.0,73.9 306.5,73.4 308.0,72.9 309.5,72.5 311.0,72.1 312.5,71.8 314.0,71.5 315.5,71.3 317.0,71.1 318.5,71.0 320.0,70.8 321.5,70.7 323.0,70.6 324.5,70.5 326.0,70.4 327.5,70.4 329.0,70.3 330.5,70.3 332.0,70.2 333.5,70.2 335.0,70.2 336.5,70.1 338.0,70.1 339.5,70.1 341.0,70.1 342.5,70.1 344.0,70.1 345.5,70.1 347.0,70.0 348.5,70.0 350.0,70.0" fill="none" stroke="#8b5cf6" stroke-width="2.5" stroke-linejoin="round"/>
  <text x="275" y="195" text-anchor="middle" font-size="9" fill="#555">older hidden</text>
  <text x="275" y="207" text-anchor="middle" font-size="9" fill="#888">(−1 to 1)</text>

  <!-- ReLU chart -->
  <rect x="370" y="60" width="160" height="120" rx="6" fill="#fff" stroke="#ef4444" stroke-width="1.5"/>
  <text x="450" y="56" text-anchor="middle" font-size="12" font-weight="bold" fill="#ef4444">ReLU</text>
  <!-- zero lines -->
  <line x1="375" y1="164.0" x2="525" y2="164.0" stroke="#ddd" stroke-width="1"/>
  <line x1="450.0" y1="65" x2="450.0" y2="175" stroke="#ddd" stroke-width="1"/>
  <polyline points="375.0,164.0 376.5,164.0 378.0,164.0 379.5,164.0 381.0,164.0 382.5,164.0 384.0,164.0 385.5,164.0 387.0,164.0 388.5,164.0 390.0,164.0 391.5,164.0 393.0,164.0 394.5,164.0 396.0,164.0 397.5,164.0 399.0,164.0 400.5,164.0 402.0,164.0 403.5,164.0 405.0,164.0 406.5,164.0 408.0,164.0 409.5,164.0 411.0,164.0 412.5,164.0 414.0,164.0 415.5,164.0 417.0,164.0 418.5,164.0 420.0,164.0 421.5,164.0 423.0,164.0 424.5,164.0 426.0,164.0 427.5,164.0 429.0,164.0 430.5,164.0 432.0,164.0 433.5,164.0 435.0,164.0 436.5,164.0 438.0,164.0 439.5,164.0 441.0,164.0 442.5,164.0 444.0,164.0 445.5,164.0 447.0,164.0 448.5,164.0 450.0,164.0 451.5,162.2 453.0,160.5 454.5,158.7 456.0,157.0 457.5,155.2 459.0,153.4 460.5,151.7 462.0,149.9 463.5,148.2 465.0,146.4 466.5,144.6 468.0,142.9 469.5,141.1 471.0,139.4 472.5,137.6 474.0,135.8 475.5,134.1 477.0,132.3 478.5,130.6 480.0,128.8 481.5,127.0 483.0,125.3 484.5,123.5 486.0,121.8 487.5,120.0 489.0,118.2 490.5,116.5 492.0,114.7 493.5,113.0 495.0,111.2 496.5,109.4 498.0,107.7 499.5,105.9 501.0,104.2 502.5,102.4 504.0,100.6 505.5,98.9 507.0,97.1 508.5,95.4 510.0,93.6 511.5,91.8 513.0,90.1 514.5,88.3 516.0,86.6 517.5,84.8 519.0,83.0 520.5,81.3 522.0,79.5 523.5,77.8 525.0,76.0" fill="none" stroke="#ef4444" stroke-width="2.5" stroke-linejoin="round"/>
  <text x="450" y="195" text-anchor="middle" font-size="9" fill="#555">hidden layers</text>
  <text x="450" y="207" text-anchor="middle" font-size="9" fill="#888">(fast, modern)</text>

  <!-- Leaky ReLU chart -->
  <rect x="545" y="60" width="160" height="120" rx="6" fill="#fff" stroke="#f59e0b" stroke-width="1.5"/>
  <text x="625" y="56" text-anchor="middle" font-size="12" font-weight="bold" fill="#f59e0b">Leaky ReLU</text>
  <!-- zero lines -->
  <line x1="550" y1="156.7" x2="700" y2="156.7" stroke="#ddd" stroke-width="1"/>
  <line x1="625.0" y1="65" x2="625.0" y2="175" stroke="#ddd" stroke-width="1"/>
  <polyline points="550.0,164.8 551.5,164.7 553.0,164.5 554.5,164.3 556.0,164.2 557.5,164.0 559.0,163.8 560.5,163.7 562.0,163.5 563.5,163.3 565.0,163.2 566.5,163.0 568.0,162.9 569.5,162.7 571.0,162.5 572.5,162.4 574.0,162.2 575.5,162.0 577.0,161.9 578.5,161.7 580.0,161.6 581.5,161.4 583.0,161.2 584.5,161.1 586.0,160.9 587.5,160.7 589.0,160.6 590.5,160.4 592.0,160.3 593.5,160.1 595.0,159.9 596.5,159.8 598.0,159.6 599.5,159.4 601.0,159.3 602.5,159.1 604.0,158.9 605.5,158.8 607.0,158.6 608.5,158.5 610.0,158.3 611.5,158.1 613.0,158.0 614.5,157.8 616.0,157.6 617.5,157.5 619.0,157.3 620.5,157.2 622.0,157.0 623.5,156.8 625.0,156.7 626.5,155.0 628.0,153.4 629.5,151.8 631.0,150.1 632.5,148.5 634.0,146.9 635.5,145.3 637.0,143.6 638.5,142.0 640.0,140.4 641.5,138.7 643.0,137.1 644.5,135.5 646.0,133.9 647.5,132.2 649.0,130.6 650.5,129.0 652.0,127.3 653.5,125.7 655.0,124.1 656.5,122.4 658.0,120.8 659.5,119.2 661.0,117.6 662.5,115.9 664.0,114.3 665.5,112.7 667.0,111.0 668.5,109.4 670.0,107.8 671.5,106.1 673.0,104.5 674.5,102.9 676.0,101.3 677.5,99.6 679.0,98.0 680.5,96.4 682.0,94.7 683.5,93.1 685.0,91.5 686.5,89.9 688.0,88.2 689.5,86.6 691.0,85.0 692.5,83.3 694.0,81.7 695.5,80.1 697.0,78.4 698.5,76.8 700.0,75.2" fill="none" stroke="#f59e0b" stroke-width="2.5" stroke-linejoin="round"/>
  <text x="625" y="195" text-anchor="middle" font-size="9" fill="#555">ReLU fix</text>
  <text x="625" y="207" text-anchor="middle" font-size="9" fill="#888">(small neg ok)</text>

  <text x="362" y="218" text-anchor="middle" font-size="10" fill="#666">Without these, a 10-layer network would collapse into a single multiplication — no complexity learned</text>
</svg>