<svg viewBox="0 0 640 280" xmlns="http://www.w3.org/2000/svg" font-family="Arial, sans-serif">
  <rect width="640" height="280" fill="#f8f9fa" rx="12"/>
  <text x="320" y="26" text-anchor="middle" font-size="14" font-weight="bold" fill="#333">Sigmoid Function — Squashes Any Score to 0–1</text>

  <!-- Grid -->
  <line x1="80" y1="40" x2="80" y2="230" stroke="#ddd" stroke-width="1"/>
  <line x1="80" y1="230" x2="560" y2="230" stroke="#ddd" stroke-width="1"/>

  <!-- Axes -->
  <line x1="75" y1="40" x2="75" y2="235" stroke="#999" stroke-width="1.5"/>
  <line x1="75" y1="230" x2="565" y2="230" stroke="#999" stroke-width="1.5"/>

  <!-- y-axis labels -->
  <text x="68" y="44" text-anchor="end" font-size="10" fill="#666">1.0</text>
  <line x1="75" y1="40" x2="560" y2="40" stroke="#eee" stroke-width="1" stroke-dasharray="4 3"/>
  <text x="68" y="136" text-anchor="end" font-size="10" fill="#666">0.5</text>
  <line x1="75" y1="130" x2="560" y2="130" stroke="#eee" stroke-width="1" stroke-dasharray="4 3"/>
  <text x="68" y="234" text-anchor="end" font-size="10" fill="#666">0.0</text>

  <!-- x-axis labels -->
  <text x="80" y="245" text-anchor="middle" font-size="10" fill="#666">−6</text>
  <text x="160" y="245" text-anchor="middle" font-size="10" fill="#666">−4</text>
  <text x="240" y="245" text-anchor="middle" font-size="10" fill="#666">−2</text>
  <text x="320" y="245" text-anchor="middle" font-size="10" fill="#666">0</text>
  <text x="400" y="245" text-anchor="middle" font-size="10" fill="#666">2</text>
  <text x="480" y="245" text-anchor="middle" font-size="10" fill="#666">4</text>
  <text x="560" y="245" text-anchor="middle" font-size="10" fill="#666">6</text>

  <!-- Axis titles -->
  <text x="320" y="262" text-anchor="middle" font-size="11" fill="#555">Raw score z</text>
  <text x="18" y="135" text-anchor="middle" font-size="11" fill="#555" transform="rotate(-90 18 135)">Probability</text>

  <!-- Sigmoid curve -->
  <polyline points="80.0,219.6 84.0,219.5 88.0,219.5 92.0,219.4 96.0,219.3 100.0,219.3 104.0,219.2 108.0,219.1 112.0,219.0 116.0,218.9 120.0,218.8 124.0,218.7 128.0,218.5 132.0,218.4 136.0,218.2 140.0,218.0 144.0,217.8 148.0,217.6 152.0,217.3 156.0,217.1 160.0,216.8 164.0,216.4 168.0,216.1 172.0,215.7 176.0,215.2 180.0,214.7 184.0,214.2 188.0,213.6 192.0,213.0 196.0,212.2 200.0,211.5 204.0,210.6 208.0,209.7 212.0,208.7 216.0,207.6 220.0,206.3 224.0,205.0 228.0,203.6 232.0,202.0 236.0,200.4 240.0,198.5 244.0,196.6 248.0,194.5 252.0,192.2 256.0,189.8 260.0,187.2 264.0,184.4 268.0,181.5 272.0,178.3 276.0,175.0 280.0,171.6 284.0,168.0 288.0,164.2 292.0,160.3 296.0,156.2 300.0,152.0 304.0,147.8 308.0,143.4 312.0,139.0 316.0,134.5 320.0,130.0 324.0,125.5 328.0,121.0 332.0,116.6 336.0,112.2 340.0,108.0 344.0,103.8 348.0,99.7 352.0,95.8 356.0,92.0 360.0,88.4 364.0,85.0 368.0,81.7 372.0,78.5 376.0,75.6 380.0,72.8 384.0,70.2 388.0,67.8 392.0,65.5 396.0,63.4 400.0,61.5 404.0,59.6 408.0,58.0 412.0,56.4 416.0,55.0 420.0,53.7 424.0,52.4 428.0,51.3 432.0,50.3 436.0,49.4 440.0,48.5 444.0,47.8 448.0,47.0 452.0,46.4 456.0,45.8 460.0,45.3 464.0,44.8 468.0,44.3 472.0,43.9 476.0,43.6 480.0,43.2 484.0,42.9 488.0,42.7 492.0,42.4 496.0,42.2 500.0,42.0 504.0,41.8 508.0,41.6 512.0,41.5 516.0,41.3 520.0,41.2 524.0,41.1 528.0,41.0 532.0,40.9 536.0,40.8 540.0,40.7 544.0,40.7 548.0,40.6 552.0,40.5 556.0,40.5 560.0,40.4" fill="none" stroke="#3b82f6" stroke-width="3" stroke-linejoin="round"/>

  <!-- Highlight z=2.87 -->
  <!-- x=2.87 → sx = 80 + (2.87+6)/12*480 = 80 + 8.87/12*480 = 80 + 354.8 = 434.8 -->
  <!-- y=0.946 → sy = 220 - 0.946*180 = 220 - 170.3 = 49.7 -->
  <line x1="434.8" y1="49.7" x2="434.8" y2="230" stroke="#ef4444" stroke-width="1.5" stroke-dasharray="5 3"/>
  <line x1="75" y1="49.7" x2="434.8" y2="49.7" stroke="#ef4444" stroke-width="1.5" stroke-dasharray="5 3"/>
  <circle cx="434.8" cy="49.7" r="6" fill="#ef4444"/>
  <rect x="438" y="36" width="115" height="30" rx="5" fill="#fef2f2" stroke="#ef4444" stroke-width="1"/>
  <text x="495" y="51" text-anchor="middle" font-size="10" fill="#b91c1c">z = 2.87</text>
  <text x="495" y="63" text-anchor="middle" font-size="10" fill="#b91c1c" font-weight="bold">→ 0.946 (Spam!)</text>

  <!-- Annotations -->
  <text x="120" y="224" font-size="10" fill="#1d4ed8">Large negative → ~0</text>
  <text x="445" y="57" font-size="10" fill="#1d4ed8" text-anchor="start"></text>
  <text x="290" y="138" font-size="10" fill="#059669">z=0 → 0.5</text>
</svg>